<mxfile host="app.diagrams.net" modified="2023-06-19T23:14:17.438Z" agent="Mozilla/5.0 (Windows NT 10.0; Win64; x64) AppleWebKit/537.36 (KHTML, like Gecko) Chrome/114.0.0.0 Safari/537.36" version="21.2.1" etag="aDX-OfdLD6KvkU2dYAbl" type="github">
  <diagram name="PÃ¡gina-1" id="A7zozmdUlnUTlmYYYuFp">
    <mxGraphModel>
      <root>
        <mxCell id="0" />
        <mxCell id="1" parent="0" />
      </root>
    </mxGraphModel>
  </diagram>
</mxfile>
